<?xml version="1.0" standalone="no"?>
<!DOCTYPE svg PUBLIC "-//W3C//DTD SVG 20010904//EN"
 "http://www.w3.org/TR/2001/REC-SVG-20010904/DTD/svg10.dtd">
<svg version="1.0" xmlns="http://www.w3.org/2000/svg"
 width="512.000000pt" height="512.000000pt" viewBox="0 0 512.000000 512.000000"
 preserveAspectRatio="xMidYMid meet">
<metadata>
Created by potrace 1.11, written by Peter Selinger 2001-2013
</metadata>
<g transform="translate(0.000000,512.000000) scale(0.100000,-0.100000)"
fill="#000000" stroke="none">
<path d="M4354 4760 c-134 -43 -230 -134 -277 -260 -9 -25 -22 -58 -28 -75 -7
-16 -13 -32 -14 -35 -1 -3 -5 -14 -9 -25 -4 -11 -21 -58 -38 -105 -17 -47 -34
-94 -38 -105 -5 -11 -25 -65 -45 -120 -19 -55 -40 -109 -45 -120 -5 -11 -16
-40 -24 -65 -8 -25 -35 -101 -61 -170 -26 -69 -48 -129 -49 -135 -1 -5 -8 -20
-14 -32 -7 -13 -10 -23 -7 -23 3 0 -1 -13 -10 -30 -18 -35 -19 -50 -3 -50 6 0
41 -12 77 -26 36 -15 70 -27 76 -29 5 -1 17 -5 25 -8 24 -11 338 -126 412
-152 l66 -23 73 196 c40 109 74 202 75 207 1 6 19 53 39 105 20 52 38 100 39
105 1 10 21 64 36 100 14 32 116 314 140 385 17 50 21 79 17 125 -25 264 -213
431 -413 365z"/>
<path d="M3742 4654 c-46 -23 -75 -65 -107 -154 -15 -41 -42 -115 -60 -165
-18 -49 -86 -232 -149 -405 -64 -173 -120 -324 -125 -335 -23 -49 -71 -193
-75 -222 -6 -49 37 -129 83 -152 43 -21 112 -24 150 -5 53 27 75 61 125 199
14 39 34 93 44 122 11 28 17 54 14 57 -3 3 0 6 6 6 7 0 12 7 12 15 0 8 15 54
34 102 19 49 53 140 76 203 66 180 170 460 189 510 32 81 11 164 -52 210 -39
30 -121 36 -165 14z"/>
<path d="M1232 3609 c-13 -5 -36 -11 -51 -14 -72 -12 -196 -83 -291 -164 -60
-52 -79 -70 -141 -141 -61 -70 -156 -239 -210 -375 -46 -116 -105 -304 -114
-360 -2 -11 -4 -20 -5 -20 -1 0 -4 -13 -6 -30 -3 -16 -9 -44 -15 -61 -5 -17
-11 -44 -13 -60 -2 -16 -9 -47 -15 -69 -17 -64 -27 -127 -37 -237 -4 -39 -12
-68 -18 -68 -6 0 -4 -5 4 -10 13 -9 13 -10 0 -10 -13 0 -13 -1 0 -10 10 -6 11
-10 3 -10 -7 0 -13 -5 -13 -11 0 -5 6 -7 12 -3 10 6 10 4 2 -7 -17 -22 -19
-119 -2 -119 10 0 9 -3 -2 -10 -13 -9 -13 -11 0 -20 12 -8 12 -10 1 -10 -10 0
-11 -3 -2 -14 9 -10 9 -16 1 -21 -7 -4 -8 -11 -2 -18 5 -7 12 -32 15 -57 33
-260 157 -423 371 -485 32 -9 66 -15 77 -12 10 3 21 1 24 -4 3 -4 11 -6 18 -4
7 2 37 6 67 9 123 12 218 55 443 203 37 25 70 44 72 42 2 -2 -1 -27 -6 -54
-11 -56 -13 -155 -4 -200 10 -51 52 -128 92 -167 113 -108 245 -114 401 -18
l50 31 49 -51 c59 -61 132 -90 245 -96 91 -4 112 -14 193 -89 88 -82 128 -100
217 -96 15 1 33 8 42 16 8 8 17 15 21 15 3 0 14 8 24 18 70 66 60 189 -20 259
-18 15 -51 45 -73 66 -103 96 -202 144 -312 154 -71 6 -75 7 -95 40 -65 105
-186 155 -317 131 -18 -4 -64 -22 -102 -42 -67 -34 -70 -34 -65 -13 2 12 15
65 27 117 28 121 31 270 5 317 -30 57 -81 87 -154 91 -140 9 -238 -27 -473
-176 -179 -114 -255 -152 -304 -154 -60 -2 -93 12 -120 50 -22 32 -31 59 -52
157 -6 25 -6 253 0 280 2 11 7 47 11 80 3 32 8 62 10 65 3 5 13 56 20 105 2
11 4 20 5 20 1 0 3 8 5 17 14 72 48 218 56 239 6 14 11 35 12 47 1 12 4 22 7
22 3 0 6 8 7 18 3 34 73 204 126 306 86 166 250 313 369 332 64 11 104 -3 156
-54 60 -59 159 -258 138 -279 -3 -4 -1 -12 4 -18 6 -7 13 -36 16 -65 7 -65 27
-124 51 -149 84 -87 241 -60 285 49 26 64 6 221 -48 380 -23 67 -79 187 -94
200 -3 3 -14 18 -24 35 -58 90 -181 188 -285 226 -62 23 -229 34 -269 18z"/>
<path d="M3496 2938 c-42 -117 -81 -222 -86 -233 -14 -34 -130 -349 -134 -365
-6 -22 -115 -321 -128 -350 -6 -14 -12 -28 -14 -32 -1 -5 -2 -9 -4 -10 -1 -2
-3 -10 -5 -18 -2 -8 -16 -46 -30 -85 -76 -199 -106 -305 -120 -420 -4 -33 -9
-73 -12 -90 -2 -16 -6 -115 -8 -220 -4 -185 3 -256 34 -337 6 -16 3 -38 -11
-75 -27 -73 -31 -102 -17 -134 17 -42 65 -55 111 -30 21 11 34 34 54 92 23 64
33 79 62 95 108 58 319 321 445 554 39 72 159 375 172 432 2 10 10 32 19 50 8
18 26 67 41 108 14 41 28 81 30 88 2 7 4 13 4 15 0 1 11 27 24 57 14 30 25 58
26 62 3 14 10 34 64 183 31 83 81 220 112 305 31 85 59 162 62 170 4 8 7 17 8
20 0 3 11 31 23 63 12 32 22 61 22 65 0 4 -53 27 -117 51 -65 23 -127 46 -138
51 -11 4 -45 17 -75 28 -30 11 -93 35 -140 52 -47 18 -89 33 -95 34 -5 2 -21
8 -35 13 -70 29 -59 43 -144 -189z"/>
</g>
</svg>
